<?xml version="1.0" encoding="utf-8"?>
<!-- Generator: Adobe Illustrator 16.0.0, SVG Export Plug-In . SVG Version: 6.00 Build 0)  -->
<!DOCTYPE svg PUBLIC "-//W3C//DTD SVG 1.1//EN" "http://www.w3.org/Graphics/SVG/1.1/DTD/svg11.dtd">
<svg version="1.1" id="Layer_1" xmlns="http://www.w3.org/2000/svg" xmlns:xlink="http://www.w3.org/1999/xlink" x="0px" y="0px"
	 width="512px" height="512px" viewBox="0 0 512 512" enable-background="new 0 0 512 512" xml:space="preserve">
<path d="M318.709,354.005c34.99-21.934,61.301-61.607,70.947-109.38c1.29-6.349-0.353-12.945-4.459-17.957
	c-4.098-5.01-10.238-7.91-16.715-7.91h-2.177c2.552-11.411,3.974-23.253,3.971-35.365c0.008-36.046-11.503-77.856-30.804-111.837
	c-22.854-40.257-52.504-62.431-83.477-62.431c-68.706,0-114.287,104.89-114.287,174.269c0,12.25,1.49,24.065,4.047,35.365h-2.238
	c-6.476,0-12.606,2.908-16.707,7.918c-4.098,5.012-5.754,11.599-4.474,17.948c9.661,47.772,35.966,87.446,70.949,109.386
	c11.735,7.359,18.074,20.934,16.186,34.655l-0.05,0.344c-3.681,26.672-22.164,48.976-47.686,57.564
	c-17.657,5.949-28.295,13.583-28.295,21.934c0,18.965,54.871,34.366,122.557,34.366c67.673,0,122.549-15.401,122.549-34.366
	c0-8.35-10.641-15.985-28.299-21.934c-25.496-8.582-44.003-30.915-47.678-57.564l-0.049-0.361
	C300.633,374.931,306.971,361.362,318.709,354.005z M179.513,218.759c-3.187-11.053-5.016-22.929-5.016-35.365
	c0-60.469,40.298-141.48,81.507-141.48c18.388,0,38.424,16.707,54.962,45.836c16.363,28.826,26.531,65.473,26.522,95.644
	c0.002,12.316-1.977,24.15-5.215,35.365H179.513z"/>
</svg>
